<svg width="24" height="24" viewBox="0 0 24 24" fill="none" xmlns="http://www.w3.org/2000/svg">
<path fill-rule="evenodd" clip-rule="evenodd" d="M8.53943 5.80254L8.91557 5.80303C8.97987 5.80312 9.04489 5.80321 9.1105 5.80331L9.51025 5.80396C10.3874 5.80546 11.3216 5.80751 12.0337 5.80899L12.3455 5.80963C12.3945 5.80973 12.442 5.80982 12.4877 5.80991C14.2871 5.68355 15.9113 7.01909 16.0561 8.81126C16.0574 8.82964 16.0586 8.93395 16.0596 9.1237L17.7196 7.76418C18.2027 7.36832 18.8528 7.29075 19.4166 7.55706C19.9804 7.82496 20.3307 8.37837 20.3299 9.00215L20.3203 14.8793C20.3195 15.5031 19.9684 16.0565 19.4054 16.322C19.1847 16.4267 18.9512 16.4771 18.7193 16.4771C18.3586 16.4771 18.0027 16.3532 17.7092 16.1125L16.0633 14.7467C16.0633 14.7699 16.0633 14.7931 16.0633 14.8164C16.0968 15.6609 15.7962 16.4742 15.2156 17.106C14.6054 17.7705 13.7641 18.1568 12.8476 18.1944C12.832 18.1955 12.7444 18.1962 12.6007 18.1967L12.2848 18.1973C12.1615 18.1973 12.0215 18.1974 11.8681 18.1973L11.1916 18.1966C11.1307 18.1966 11.0687 18.1965 11.006 18.1964L10.6202 18.1958C9.701 18.1942 8.66561 18.1918 7.86288 18.1901L7.53412 18.1894C7.42996 18.1891 7.33157 18.1889 7.23995 18.1888C7.15518 18.1952 7.07041 18.1984 6.98564 18.1984C5.29504 18.1992 3.82035 16.9036 3.6812 15.2042L3.68108 15.2025L3.68033 15.1866C3.68028 15.1849 3.68022 15.183 3.68016 15.1809L3.67961 15.1557C3.67955 15.1521 3.67948 15.1483 3.67942 15.1441L3.67881 15.0976C3.67874 15.0913 3.67867 15.0846 3.6786 15.0776L3.67796 15.002C3.67789 14.9922 3.67782 14.9819 3.67775 14.971L3.67731 14.8996C3.67724 14.8866 3.67717 14.873 3.6771 14.8588L3.67645 14.714C3.67637 14.696 3.6763 14.6773 3.67623 14.6578L3.67561 14.4631C3.67554 14.4391 3.67547 14.4144 3.67541 14.3889L3.67483 14.1365C3.67476 14.1058 3.6747 14.0743 3.67464 14.0418L3.67397 13.6065C3.67392 13.5662 3.67387 13.525 3.67382 13.4826L3.6732 12.7655C3.67317 12.712 3.67314 12.6573 3.67311 12.6014L3.67309 9.46818C3.67313 9.37316 3.67317 9.27655 3.67321 9.17833C3.63482 8.35382 3.93391 7.53491 4.51771 6.89753C5.1271 6.23216 5.9676 5.8443 6.88488 5.80511C6.89723 5.80422 6.95568 5.80355 7.05209 5.80306L7.22415 5.80247C7.25724 5.80239 7.29244 5.80232 7.32963 5.80227L8.35975 5.80235C8.41858 5.80241 8.47852 5.80247 8.53943 5.80254ZM12.5309 7.00789C11.5212 7.00642 10.2866 7.00466 9.23307 7.00351L8.67879 7.00295C8.59021 7.00287 8.50375 7.00279 8.41969 7.00272L7.02892 7.00277C6.97658 7.003 6.94272 7.00336 6.92966 7.00389C6.33947 7.02868 5.79486 7.27899 5.4022 7.70764C5.03593 8.1083 4.84719 8.62013 4.87199 9.15114L4.87265 12.2404C4.87268 12.3086 4.87272 12.3764 4.87276 12.4435L4.87349 13.3984C4.87355 13.4578 4.87361 13.5163 4.87367 13.5736L4.87409 13.904C4.87416 13.9566 4.87424 14.008 4.87431 14.0581L4.87509 14.4699C4.87594 14.8407 4.87702 15.0811 4.87838 15.1274C4.96955 16.2351 6.00759 17.082 7.19597 16.9908C7.32164 16.991 7.45077 16.9912 7.58258 16.9914L7.98526 16.992C8.32624 16.9926 8.67912 16.9932 9.03175 16.9938L9.45402 16.9945C9.66431 16.9948 9.87277 16.9952 10.0768 16.9955L10.4781 16.9961C10.5437 16.9962 10.6086 16.9963 10.6728 16.9964L11.0475 16.9969C11.1081 16.9969 11.1678 16.997 11.2263 16.9971L12.6382 16.997C12.7305 16.9967 12.7885 16.9962 12.806 16.9956C13.3938 16.9716 13.9392 16.7221 14.3319 16.2942C14.6989 15.8952 14.8877 15.3834 14.8645 14.8547L14.8638 14.8415L14.8636 10.9739C14.8636 10.9111 14.8636 10.8491 14.8635 10.788L14.8629 10.1036C14.8629 10.0511 14.8628 9.99985 14.8627 9.94995L14.862 9.53938C14.8618 9.41617 14.8615 9.30742 14.8612 9.21548L14.8605 9.05475C14.86 8.9635 14.8595 8.90498 14.8589 8.88483C14.7685 7.77162 13.7257 6.91432 12.5309 7.00789ZM18.4794 8.69266L16.063 10.6642C16.063 10.7625 16.0631 10.8646 16.0632 10.9706L16.0637 12.976L18.4698 15.1856C18.6465 15.3295 18.824 15.2704 18.8928 15.2368C18.9616 15.2048 19.1207 15.1048 19.1207 14.8777L19.1303 9.00055C19.1311 8.77343 18.9712 8.67347 18.9024 8.64068C18.8344 8.60869 18.6545 8.54871 18.4794 8.69266Z" fill="#686B72"/>
</svg>
