<svg width="24" height="24" viewBox="0 0 24 24" fill="none" xmlns="http://www.w3.org/2000/svg">
<path fill-rule="evenodd" clip-rule="evenodd" d="M14.5621 6.99793H18.1379C19.7195 6.99793 21.0019 8.28035 21.0019 9.86192V16.961C21.0019 18.5426 19.7195 19.825 18.1379 19.825H5.86205C4.28048 19.825 2.99805 18.5426 2.99805 16.9638V9.86192C2.99805 8.28035 4.28048 6.99793 5.86205 6.99516H9.43512L7.41592 5.41082C7.11678 5.17538 7.06415 4.74052 7.29959 4.43861C7.53502 4.13947 7.96989 4.08684 8.2718 4.32227L11.6815 6.99793H12.3157L15.7254 4.32504C16.0273 4.08684 16.4622 4.13947 16.6976 4.44138C16.9358 4.74329 16.8832 5.17815 16.5813 5.41358L14.5621 6.99793ZM18.1379 18.4401C18.955 18.4401 19.617 17.7753 19.617 16.961V9.86192C19.617 9.04483 18.9522 8.38284 18.1379 8.38284H5.86205C5.04495 8.38284 4.38296 9.0476 4.38296 9.86192V16.961C4.38296 17.7781 5.04495 18.4401 5.86205 18.4401H18.1379ZM12.4514 11.8509L13.7976 12.6264C14.4014 12.9754 14.4014 13.8479 13.7976 14.1997L12.4514 14.9752L11.1053 15.7508C10.5015 16.0998 9.74809 15.6649 9.74809 14.9669V13.413V11.8592C9.74809 11.1612 10.5015 10.7263 11.1053 11.0753L12.4514 11.8509Z" fill="#686B72"/>
</svg>
