<svg width="24" height="24" viewBox="0 0 24 24" fill="none" xmlns="http://www.w3.org/2000/svg">
<path d="M9.84595 4.35839C8.20991 4.58015 6.71948 5.30808 5.51671 6.46928C4.26533 7.67889 3.52714 9.12792 3.23949 10.9303C3.15975 11.419 3.15975 12.5768 3.23949 13.0655C3.5131 14.7847 4.19603 16.1747 5.33634 17.3497C6.83721 18.8851 8.74703 19.6928 10.8927 19.6928C12.0434 19.6928 13.0937 19.4572 14.1993 18.9546C15.3362 18.4348 16.3899 18.206 17.4367 18.2476C18.2962 18.2857 18.9271 18.4555 19.6827 18.8437C20.1646 19.0934 20.2685 19.1141 20.5077 18.9962C20.8612 18.8263 20.9271 18.348 20.6394 18.0776C20.487 17.932 19.7729 17.5819 19.3119 17.4224C18.6846 17.2075 18.175 17.1244 17.3778 17.0966L16.6776 17.0759L16.8855 16.816C17.5684 15.9599 18.123 14.8194 18.3725 13.7623C18.9721 11.2042 18.2062 8.46605 16.3759 6.61508C15.1317 5.35326 13.5929 4.58375 11.8424 4.35496C11.3398 4.28908 10.3449 4.2925 9.84595 4.35839ZM11.3189 6.25093C11.9117 6.39997 12.4247 6.9857 12.5251 7.62705C12.6498 8.44858 12.1023 9.26994 11.2842 9.48486C10.3413 9.7275 9.3882 9.09317 9.22188 8.10874C9.09354 7.35309 9.56857 6.56288 10.3068 6.28909C10.6084 6.17821 10.9828 6.16435 11.3189 6.25093ZM7.43679 9.03431C7.73146 9.11405 7.96366 9.24924 8.20289 9.48486C9.021 10.2891 8.79563 11.6444 7.76278 12.1503C6.56 12.7397 5.19432 11.7482 5.37468 10.4241C5.50969 9.45372 6.49412 8.79167 7.43679 9.03431ZM15.1526 9.04475C16.175 9.32898 16.6812 10.4693 16.2063 11.4121C16.0955 11.6305 15.7801 11.9702 15.5825 12.0881C14.7366 12.5836 13.6552 12.2682 13.2289 11.4017C12.8997 10.7397 13.021 9.99445 13.534 9.48486C13.9846 9.03773 14.5633 8.88185 15.1526 9.04475ZM11.118 11.3774C11.3398 11.4606 11.5443 11.7552 11.5443 11.9979C11.5443 12.1539 11.4402 12.3723 11.3155 12.4902C10.962 12.8194 10.3519 12.6392 10.2236 12.1644C10.1127 11.7518 10.4315 11.3394 10.8579 11.3394C10.9481 11.3392 11.0626 11.3567 11.118 11.3774ZM9.03828 13.5958C9.46452 13.7414 9.80779 14.0533 10.0089 14.4796C10.1163 14.7049 10.137 14.7847 10.1509 15.0689C10.1718 15.4744 10.1023 15.7587 9.91525 16.0463C9.32592 16.9544 8.11972 17.1139 7.35381 16.3826C6.35552 15.4329 6.85467 13.7794 8.21693 13.523C8.43167 13.4815 8.80607 13.5126 9.03828 13.5958ZM13.5409 13.5265C14.3277 13.6687 14.9065 14.3619 14.9065 15.1625C14.9065 15.6651 14.7505 16.0325 14.3901 16.3791C13.7385 16.9962 12.7472 16.9996 12.1025 16.3826C11.4404 15.7517 11.3988 14.7327 12.0089 14.0533C12.4005 13.6201 12.9724 13.4224 13.5409 13.5265Z" fill="#686B72"/>
</svg>
