<svg width="24" height="24" viewBox="0 0 24 24" fill="none" xmlns="http://www.w3.org/2000/svg">
<path fill-rule="evenodd" clip-rule="evenodd" d="M6.54477 12.1703C5.90808 11.5336 5.55039 10.67 5.55039 9.7696C5.55039 8.86918 5.90808 8.00565 6.54477 7.36895C7.18146 6.73226 8.045 6.37457 8.94542 6.37457C9.84584 6.37457 10.7094 6.73226 11.3461 7.36895L12.0002 8.02312L12.6544 7.36895C12.6548 7.36858 12.6551 7.3682 12.6555 7.36783C12.9705 7.053 13.3443 6.80324 13.7557 6.63277C14.1677 6.46209 14.6092 6.37424 15.055 6.37424C15.5009 6.37424 15.9424 6.46209 16.3543 6.63277C16.7662 6.80344 17.1405 7.0536 17.4557 7.36895C17.771 7.68416 18.0212 8.05841 18.1919 8.47032C18.3625 8.88223 18.4504 9.32373 18.4504 9.7696C18.4504 10.2155 18.3625 10.657 18.1919 11.0689C18.0212 11.4808 17.771 11.855 17.4557 12.1703L12.0002 17.6257L6.54477 12.1703ZM18.4454 13.1604L12.9902 18.6157C12.7276 18.8782 12.3715 19.0257 12.0002 19.0257C11.6289 19.0257 11.2728 18.8782 11.0103 18.6157L5.55482 13.1602C4.65558 12.261 4.15039 11.0413 4.15039 9.7696C4.15039 8.49788 4.65558 7.27825 5.55482 6.37901C6.45406 5.47976 7.6737 4.97457 8.94542 4.97457C10.0651 4.97457 11.1444 5.36618 12.0002 6.07354C12.3673 5.77003 12.7782 5.52238 13.2198 5.3394C13.8017 5.09832 14.4253 4.97424 15.055 4.97424C15.6848 4.97424 16.3084 5.09832 16.8902 5.3394C17.4718 5.58039 18.0003 5.93357 18.4454 6.37877C18.8908 6.82399 19.2442 7.3526 19.4852 7.93441C19.7263 8.51622 19.8504 9.13982 19.8504 9.7696C19.8504 10.3994 19.7263 11.023 19.4852 11.6048C19.2442 12.1865 18.8907 12.7153 18.4454 13.1604C18.4453 13.1605 18.4455 13.1604 18.4454 13.1604Z" fill="#686B72"/>
</svg>
